# xmcd
#
# Track frame offsets: 
#        150
#        24127
#        60190
#        130521
#        147258
#        150944
#        190638
#
# Disc length: 3033 seconds
#
# Revision: 2
# Processed by: cddbd v1.5.2PL0 Copyright (c) Steve Scherf et al.
# Submitted via: ExactAudioCopy v1.0b1
#
DISCID=420bd707
DTITLE=The Allman Brothers Band - 03-24-09 Beacon Theatre (Disc1)
DYEAR=2009
DGENRE=Blues
TTITLE0=Hot' Lanta
TTITLE1=Ain't Wastin' Time No More
TTITLE2=Rockin' Horse
TTITLE3=Trouble No More
TTITLE4=Announcements
TTITLE5=Goin' Down Slow
TTITLE6=Lonely Man Blues
EXTD=YEAR: 2009
EXTT0=
EXTT1=
EXTT2=
EXTT3=
EXTT4=
EXTT5=
EXTT6=
PLAYORDER=
